<?xml version="1.0" encoding="UTF-8" standalone="no"?><!DOCTYPE svg PUBLIC "-//W3C//DTD SVG 1.1//EN" "http://www.w3.org/Graphics/SVG/1.1/DTD/svg11.dtd"><svg width="100%" height="100%" viewBox="0 0 1164 170" version="1.1" xmlns="http://www.w3.org/2000/svg" xmlns:xlink="http://www.w3.org/1999/xlink" xml:space="preserve" xmlns:serif="http://www.serif.com/" style="fill-rule:evenodd;clip-rule:evenodd;stroke-linejoin:round;stroke-miterlimit:2;"><rect id="Artboard2" x="0" y="0" width="1163.12" height="169.375" style="fill:none;"/><path d="M1149.04,84.688c-0,38.956 -31.628,70.584 -70.585,70.584l-993.777,-0c-38.957,-0 -70.585,-31.628 -70.585,-70.584c0,-38.957 31.628,-70.585 70.585,-70.585l993.777,0c38.957,0 70.585,31.628 70.585,70.585Z" style="fill:#ed5829;"/><clipPath id="_clip1"><path d="M1149.04,84.688c-0,38.956 -31.628,70.584 -70.585,70.584l-993.777,-0c-38.957,-0 -70.585,-31.628 -70.585,-70.584c0,-38.957 31.628,-70.585 70.585,-70.585l993.777,0c38.957,0 70.585,31.628 70.585,70.585Z"/></clipPath><g clip-path="url(#_clip1)"><rect x="0" y="-0.032" width="1163.12" height="169.407" style="fill:url(#_Linear2);"/><rect x="0" y="-0.032" width="1163.12" height="169.407" style="fill:url(#_Linear3);"/></g><circle cx="85.167" cy="84.65" r="59.375" style="fill:#fbfbfa;"/><clipPath id="_clip4"><circle cx="85.167" cy="84.65" r="59.375"/></clipPath><g clip-path="url(#_clip4)"><rect x="25.792" y="84.687" width="118.75" height="59.338" style="fill:url(#_Linear5);"/></g><g><path d="M98.432,46.132c-0.352,0 -0.711,-0.09 -1.041,-0.281l-11.027,-6.382l-11.065,6.384c-0.997,0.574 -2.267,0.233 -2.842,-0.764c-0.574,-0.996 -0.231,-2.271 0.765,-2.845l12.107,-6.984c0.643,-0.373 1.434,-0.373 2.08,0.002l12.066,6.984c0.997,0.576 1.336,1.849 0.761,2.845c-0.387,0.667 -1.085,1.041 -1.804,1.041" style="fill-rule:nonzero;"/><path d="M86.367,101.019c-1.149,-0 -2.081,-0.932 -2.081,-2.082l0,-13.969c0,-1.15 0.932,-2.082 2.081,-2.082c1.148,0 2.08,0.932 2.08,2.082l0,13.969c0,1.15 -0.932,2.082 -2.08,2.082" style="fill-rule:nonzero;"/><path d="M44.887,77.043c-1.147,0 -2.079,-0.932 -2.079,-2.082l0,-13.963c0,-1.15 0.932,-2.082 2.079,-2.082c1.148,0 2.08,0.932 2.08,2.082l0,13.963c0,1.15 -0.932,2.082 -2.08,2.082" style="fill-rule:nonzero;"/><path d="M127.794,77.043c-1.148,0 -2.08,-0.932 -2.08,-2.082l-0.002,-13.963c-0,-1.148 0.932,-2.082 2.08,-2.082c1.147,0 2.079,0.932 2.079,2.082l0.002,13.963c-0,1.15 -0.932,2.082 -2.079,2.082" style="fill-rule:nonzero;"/><path d="M127.796,111.022c-1.148,-0 -2.08,-0.93 -2.08,-2.083l-0.011,-13.962c-0.002,-1.149 0.93,-2.083 2.078,-2.083l0.002,0c1.149,0 2.08,0.93 2.08,2.081l0.01,13.963c0.003,1.15 -0.93,2.084 -2.077,2.084l-0.002,-0Z" style="fill-rule:nonzero;"/><path d="M44.887,111.022c-1.147,-0 -2.079,-0.932 -2.079,-2.083l0,-13.962c0,-1.151 0.932,-2.083 2.079,-2.083c1.148,0 2.08,0.932 2.08,2.083l0,13.962c0,1.151 -0.932,2.083 -2.08,2.083" style="fill-rule:nonzero;"/><path d="M86.367,54.369c-1.149,0 -2.081,-0.932 -2.081,-2.082l0,-15.224c0,-1.151 0.932,-2.083 2.081,-2.083c1.148,0 2.08,0.932 2.08,2.083l0,15.224c0,1.15 -0.932,2.082 -2.08,2.082" style="fill-rule:nonzero;"/><path d="M86.367,135.019c-1.149,-0 -2.081,-0.932 -2.081,-2.082l0,-13.963c0,-1.15 0.932,-2.082 2.081,-2.082c1.148,-0 2.08,0.932 2.08,2.082l0,13.963c0,1.15 -0.932,2.082 -2.08,2.082" style="fill-rule:nonzero;"/><path d="M86.367,135.019c-0.358,-0 -0.719,-0.093 -1.041,-0.278l-12.149,-7.029c-0.995,-0.576 -1.336,-1.85 -0.758,-2.845c0.572,-0.997 1.845,-1.336 2.842,-0.761l11.106,6.426l10.956,-6.349c0.993,-0.576 2.267,-0.235 2.843,0.76c0.577,0.995 0.236,2.269 -0.759,2.845l-11.999,6.951c-0.319,0.187 -0.682,0.28 -1.041,0.28" style="fill-rule:nonzero;"/><path d="M86.367,87.051c-0.358,-0 -0.717,-0.093 -1.041,-0.278l-12.107,-6.988c-0.995,-0.576 -1.336,-1.849 -0.761,-2.846c0.578,-0.998 1.845,-1.333 2.842,-0.765l11.065,6.39l11.026,-6.386c1.001,-0.576 2.268,-0.237 2.844,0.76c0.576,0.994 0.235,2.269 -0.76,2.845l-12.067,6.988c-0.319,0.187 -0.682,0.28 -1.041,0.28" style="fill-rule:nonzero;"/><path d="M115.713,70.067c-0.719,0 -1.419,-0.372 -1.803,-1.041c-0.576,-0.996 -0.237,-2.269 0.762,-2.845l12.08,-6.986c0.993,-0.573 2.268,-0.234 2.84,0.761c0.576,0.999 0.235,2.271 -0.761,2.847l-12.079,6.985c-0.328,0.189 -0.685,0.279 -1.039,0.279" style="fill-rule:nonzero;"/><path d="M127.789,63.082c-0.352,0 -0.712,-0.091 -1.038,-0.279l-12.099,-6.992c-0.995,-0.574 -1.335,-1.847 -0.763,-2.844c0.578,-0.996 1.853,-1.337 2.844,-0.763l12.097,6.992c0.997,0.574 1.337,1.847 0.765,2.845c-0.385,0.667 -1.086,1.041 -1.806,1.041" style="fill-rule:nonzero;"/><path d="M56.974,70.067c-0.354,0 -0.712,-0.09 -1.04,-0.279l-12.088,-6.985c-0.992,-0.576 -1.335,-1.848 -0.761,-2.845c0.574,-0.997 1.853,-1.336 2.842,-0.763l12.088,6.986c0.997,0.574 1.337,1.849 0.763,2.845c-0.385,0.667 -1.085,1.041 -1.804,1.041" style="fill-rule:nonzero;"/><path d="M44.889,63.082c-0.719,0 -1.42,-0.374 -1.805,-1.043c-0.572,-0.996 -0.231,-2.269 0.765,-2.845l12.077,-6.968c0.991,-0.574 2.266,-0.233 2.84,0.765c0.574,0.995 0.232,2.27 -0.763,2.844l-12.077,6.969c-0.328,0.187 -0.685,0.278 -1.037,0.278" style="fill-rule:nonzero;"/><path d="M115.689,118.008c-0.72,-0 -1.421,-0.375 -1.806,-1.043c-0.572,-0.997 -0.232,-2.272 0.765,-2.844l12.11,-6.986c0.993,-0.576 2.264,-0.233 2.84,0.763c0.573,0.999 0.232,2.271 -0.765,2.846l-12.108,6.986c-0.326,0.187 -0.686,0.278 -1.036,0.278" style="fill-rule:nonzero;"/><path d="M127.794,111.023c-0.354,-0 -0.713,-0.091 -1.039,-0.28l-12.088,-6.986c-0.995,-0.574 -1.338,-1.849 -0.761,-2.846c0.574,-0.996 1.852,-1.334 2.841,-0.761l12.088,6.986c0.995,0.574 1.336,1.849 0.764,2.845c-0.386,0.667 -1.086,1.042 -1.805,1.042" style="fill-rule:nonzero;"/><path d="M56.974,118.016c-0.354,-0 -0.712,-0.091 -1.041,-0.28l-12.088,-6.993c-0.993,-0.576 -1.334,-1.849 -0.758,-2.846c0.572,-0.995 1.847,-1.334 2.842,-0.761l12.088,6.993c0.996,0.576 1.335,1.849 0.759,2.846c-0.383,0.667 -1.083,1.041 -1.802,1.041" style="fill-rule:nonzero;"/><path d="M44.889,111.023c-0.719,-0 -1.418,-0.373 -1.803,-1.042c-0.574,-0.994 -0.235,-2.269 0.76,-2.843l12.065,-6.988c1.001,-0.576 2.268,-0.235 2.844,0.761c0.576,0.995 0.235,2.27 -0.76,2.846l-12.065,6.986c-0.328,0.189 -0.688,0.28 -1.041,0.28" style="fill-rule:nonzero;"/><g opacity="0.2"><path d="M44.889,62.187c-0.412,-0 -0.81,-0.213 -1.03,-0.595c-0.327,-0.569 -0.132,-1.295 0.435,-1.621l41.479,-23.937c0.576,-0.33 1.295,-0.131 1.623,0.437c0.327,0.567 0.131,1.293 -0.436,1.621l-41.48,23.935c-0.188,0.108 -0.391,0.16 -0.591,0.16" style="fill-rule:nonzero;"/></g><g opacity="0.2"><path d="M44.889,110.127c-0.412,0 -0.81,-0.211 -1.029,-0.593c-0.328,-0.568 -0.135,-1.295 0.434,-1.623l82.906,-47.94c0.566,-0.332 1.293,-0.135 1.619,0.435c0.328,0.567 0.135,1.293 -0.436,1.621l-82.903,47.941c-0.186,0.107 -0.391,0.159 -0.591,0.159" style="fill-rule:nonzero;"/></g><g opacity="0.2"><path d="M127.789,62.187c-0.199,-0 -0.404,-0.052 -0.589,-0.16l-41.427,-23.935c-0.565,-0.328 -0.762,-1.054 -0.432,-1.623c0.324,-0.566 1.047,-0.765 1.619,-0.435l41.423,23.937c0.569,0.328 0.764,1.054 0.436,1.623c-0.221,0.38 -0.619,0.593 -1.03,0.593" style="fill-rule:nonzero;"/></g><g opacity="0.2"><path d="M127.794,110.127c-0.202,0 -0.405,-0.052 -0.591,-0.159l-82.909,-47.941c-0.569,-0.328 -0.762,-1.054 -0.434,-1.621c0.326,-0.569 1.053,-0.763 1.62,-0.435l82.909,47.94c0.569,0.328 0.761,1.055 0.433,1.623c-0.218,0.38 -0.616,0.593 -1.028,0.593" style="fill-rule:nonzero;"/></g><g opacity="0.2"><path d="M86.365,134.124c-0.2,0 -0.406,-0.052 -0.591,-0.159l-41.481,-23.998c-0.568,-0.328 -0.761,-1.054 -0.431,-1.623c0.324,-0.567 1.05,-0.761 1.619,-0.433l41.479,23.998c0.568,0.328 0.763,1.056 0.435,1.623c-0.221,0.381 -0.619,0.592 -1.03,0.592" style="fill-rule:nonzero;"/></g><g opacity="0.2"><path d="M86.368,134.124c-0.411,0 -0.807,-0.211 -1.028,-0.592c-0.328,-0.567 -0.135,-1.295 0.432,-1.623l41.429,-23.996c0.57,-0.334 1.291,-0.136 1.621,0.431c0.329,0.569 0.135,1.295 -0.43,1.623l-41.431,23.998c-0.187,0.107 -0.391,0.159 -0.593,0.159" style="fill-rule:nonzero;"/></g><g opacity="0.2"><path d="M44.887,110.127c-0.656,0 -1.186,-0.532 -1.186,-1.187l0,-47.941c0,-0.656 0.53,-1.187 1.186,-1.187c0.655,-0 1.187,0.531 1.187,1.187l0,47.941c0,0.655 -0.532,1.187 -1.187,1.187" style="fill-rule:nonzero;"/></g><g opacity="0.2"><path d="M127.796,110.127c-0.656,0 -1.187,-0.532 -1.187,-1.187l-0.004,-47.941c-0,-0.656 0.532,-1.187 1.187,-1.187c0.656,-0 1.186,0.531 1.186,1.187l0.004,47.941c-0,0.655 -0.53,1.187 -1.186,1.187" style="fill-rule:nonzero;"/></g><g opacity="0.2"><path d="M86.367,133.988c-0.656,-0 -1.188,-0.532 -1.188,-1.188l0,-95.736c0,-0.656 0.532,-1.188 1.188,-1.188c0.656,0 1.187,0.532 1.187,1.188l0,95.736c0,0.656 -0.531,1.188 -1.187,1.188" style="fill-rule:nonzero;"/></g></g><g><path d="M202,60.579l-9.815,0l-0,31.5c0.075,6.825 -5.627,12.9 -13.355,12.9c-7.653,0 -13.28,-6.075 -13.355,-12.9l0,-31.5l-9.815,0c-0,0 -0.075,18.675 -0.075,34.275c0.075,12.523 10.115,19.341 23.245,19.341c13.055,-0 23.245,-6.818 23.17,-19.341l0,-34.275Z" style="fill:#fbfbfa;fill-rule:nonzero;"/><path d="M223.827,77.526c-2.401,1.873 -3.452,5.919 -4.576,8.769l-1.573,-0.675c1.124,-2.843 2.622,-6.442 2.622,-9.441l0,-0.6l-9.14,0l-0,37.491l9.14,-0l0,-19.12c0,-7.205 5.103,-10.43 11.106,-10.43c5.477,-0 8.104,3.225 8.104,10.425l-0,19.125l9.215,-0l0,-25.725c0,-8.545 -5.919,-12.891 -13.567,-12.891c-4.878,0 -8.179,0.6 -11.331,3.072Z" style="fill:#fbfbfa;fill-rule:nonzero;"/><path d="M257.735,104.004c-0,5.844 4.495,9.066 13.04,9.066l5.55,-0l0,-8.541l-4.65,0c-3.45,0 -4.725,-0.975 -4.725,-4.05l0,-41.775l-9.215,0l-0,45.3Z" style="fill:#fbfbfa;fill-rule:nonzero;"/><path d="M281.66,94.25c-0,12.078 8.467,20.02 21.37,20.02c12.978,-0 21.445,-8.391 21.445,-20.02c0,-11.554 -8.467,-19.796 -21.445,-19.796c-12.903,0 -21.37,7.717 -21.37,19.796Zm9.74,-0c0,-6.153 3.302,-10.955 11.63,-10.955c8.328,-0 11.705,4.802 11.705,10.955c-0,6.152 -3.377,11.179 -11.705,11.179c-8.253,0 -11.63,-5.027 -11.63,-11.179Z" style="fill:#fbfbfa;fill-rule:nonzero;"/><path d="M329.885,94.1c-0,12.229 8.241,20.095 20.615,20.17c12,-0.075 18.375,-7.417 19.575,-14.768l-9.825,-0c-0.225,0.825 -2.925,6.077 -10.05,6.077c-6.9,-0.075 -11.25,-4.877 -11.25,-11.554c0.075,-6.753 4.2,-10.955 10.95,-10.955c7.275,-0 9.9,5.252 10.125,6.003l9.825,-0c-0.75,-6.977 -7.35,-14.619 -19.725,-14.619c-12.149,0 -20.24,7.417 -20.24,19.646Z" style="fill:#fbfbfa;fill-rule:nonzero;"/><path d="M389.05,84.82c-2.1,1.804 -3.45,5.034 -4.574,7.589l-1.573,-0.676c1.199,-2.555 2.697,-5.71 2.697,-8.49l0,-24.614l-9.215,0l-0,54.441l9.215,-0l-0.15,-14.35l3.675,-3.231l14.4,17.581l11.475,-0l-19.65,-23.019l15.75,-14.472l-11.475,0l-10.575,9.241Z" style="fill:#fbfbfa;fill-rule:nonzero;"/><path d="M444.335,100.478c-0,5.999 2.397,12.592 9.44,12.592l9.075,-0l0,-8.541l-4.425,0c-3.525,0 -4.95,-0.9 -4.95,-4.051l0,-16.883l9.75,-0l0,-8.016l-9.75,0l0,-14.175l-9.14,0l-0,14.175l-7.5,0l-0,8.016l7.5,-0l-0,16.883Z" style="fill:#fbfbfa;fill-rule:nonzero;"/><path d="M482.802,77.901c-2.251,1.873 -3.227,5.769 -4.276,8.544l-1.573,-0.6c1.049,-2.775 2.547,-6.296 2.547,-9.218l0,-17.998l-9.14,0l-0,54.441l9.14,-0l0,-19.125c0,-7.2 5.103,-10.425 11.106,-10.425c5.477,-0 8.104,3.225 8.104,10.425l-0,19.125l9.215,-0l0,-25.725c0,-8.545 -5.919,-12.891 -13.567,-12.891c-4.878,0 -8.405,0.75 -11.556,3.447Z" style="fill:#fbfbfa;fill-rule:nonzero;"/><path d="M537.256,114.27c11.776,-0 17.321,-8.016 18.445,-11.92l-10.492,0c-0.75,1.877 -3.826,4.054 -8.854,4.054c-7.728,0 -11.48,-5.18 -11.48,-9.309l31.575,0.075c0.075,-0.674 0.075,-2.471 0.075,-3.22c0.075,-10.353 -8.018,-19.496 -21.07,-19.496c-12.678,0 -21.595,8.467 -21.595,19.646c-0,11.178 8.168,20.17 23.396,20.17Zm-12.381,-23.316c0,-4.73 4.427,-9.234 10.805,-9.234c6.303,-0 10.13,4.054 10.13,9.234l-20.935,0Z" style="fill:#fbfbfa;fill-rule:nonzero;"/><path d="M576.185,113.07l10.348,-0l6.449,-18.375l16.722,-0l7.048,18.375l10.273,-0l-20.246,-52.641l-11.248,0l-19.346,52.641Zm32.319,-25.716l-14.623,0l6.149,-13.956c0.675,-1.576 0.3,-3.752 0.3,-5.403l1.725,-0c-0,1.651 -0.375,3.827 0.3,5.403l6.149,13.956Z" style="fill:#fbfbfa;fill-rule:nonzero;"/><path d="M664.608,90.198c-2.249,-1.498 -6.075,-0.749 -8.777,-0.749l0,-1.723c2.702,-0 6.303,0.449 8.777,-0.674c4.721,-2.023 8.242,-5.024 8.242,-11.778c0,-12.298 -9.74,-14.695 -21.521,-14.695l-18.744,0l-0,52.491l9.515,-0l0,-20.25l8.329,-0c2.776,0.15 8.029,-0.749 10.43,7.725c0.225,1.05 1.5,5.925 3.15,12.525l10.116,-0c0,-0 -3.298,-10.125 -3.972,-13.125c-1.199,-4.725 -2.548,-7.949 -5.545,-9.747Zm-22.508,-23.103l8.479,-0c6.978,-0 12.456,1.726 12.456,8.329c-0,6.679 -5.928,9.305 -12.456,9.305l-8.479,0l0,-17.634Z" style="fill:#fbfbfa;fill-rule:nonzero;"/><path d="M701.135,113.07l36.965,-0l0,-9.141l-27.45,0l0,-13.059l25.2,-0l0,-9.141l-25.2,0l0,-12.009l27.075,-0l0,-9.141l-36.59,0l-0,52.491Z" style="fill:#fbfbfa;fill-rule:nonzero;"/><path d="M758.58,101.895c0.975,-1.575 0.75,-3.75 0.75,-5.625l1.65,-0c0.075,1.8 -0.075,4.05 0.9,5.55l7.723,11.25l10.422,-0l-14.396,-19.121l13.496,-18.37l-10.422,0l-6.823,9.675c-1.05,1.5 -0.825,3.6 -0.9,5.4l-1.65,-0.075c0,-1.725 0.225,-3.825 -0.75,-5.325l-6.523,-9.675l-10.423,0l13.272,17.621l-14.171,19.87l10.422,-0l7.423,-11.175Z" style="fill:#fbfbfa;fill-rule:nonzero;"/><path d="M794.575,110.149c0,-2.247 -1.348,-4.87 -2.023,-7.046l1.574,-0.525c0.749,2.101 1.125,5.174 2.7,6.747c2.776,2.922 6.678,4.87 11.63,4.87c10.877,-0 18.445,-9.216 18.744,-20.02c0.225,-11.105 -7.492,-19.796 -18.744,-19.796c-5.027,0 -8.929,1.723 -11.705,4.645c-1.5,1.574 -1.876,4.646 -2.625,6.822l-1.574,-0.526c0.75,-2.173 2.023,-4.795 2.023,-7.043l0,-2.698l-9.215,0.075l-0,56.316l9.215,-0.075l0,-21.746Zm12.605,-27.229c7.053,-0 10.805,4.802 10.805,11.105c-0,6.377 -3.752,11.629 -10.805,11.629c-6.977,0 -10.954,-5.252 -10.954,-11.629c-0,-6.303 3.977,-11.105 10.954,-11.105Z" style="fill:#fbfbfa;fill-rule:nonzero;"/><path d="M854.506,114.27c11.776,-0 17.321,-8.016 18.445,-11.92l-10.492,0c-0.75,1.877 -3.826,4.054 -8.854,4.054c-7.728,0 -11.48,-5.18 -11.48,-9.309l31.575,0.075c0.075,-0.674 0.075,-2.471 0.075,-3.22c0.075,-10.353 -8.018,-19.496 -21.07,-19.496c-12.678,0 -21.595,8.467 -21.595,19.646c-0,11.178 8.168,20.17 23.396,20.17Zm-12.381,-23.316c0,-4.73 4.427,-9.234 10.805,-9.234c6.303,-0 10.13,4.054 10.13,9.234l-20.935,0Z" style="fill:#fbfbfa;fill-rule:nonzero;"/><path d="M892.9,78.2c-2.325,1.723 -3.525,5.47 -4.648,8.095l-1.574,-0.675c1.124,-2.618 2.697,-6.067 2.697,-8.916l0,-1.125l-9.14,0l-0,37.491l9.14,-0l0,-16.346c0,-10.429 9.675,-13.729 18.975,-13.729l0,-8.541c-7.35,0 -11.475,0.675 -15.45,3.746Z" style="fill:#fbfbfa;fill-rule:nonzero;"/><path d="M914.81,69.945l9.965,-0l0,-9.366l-9.965,0l-0,9.366Zm0.525,43.125l9.065,-0l0,-37.491l-9.065,0l-0,37.491Z" style="fill:#fbfbfa;fill-rule:nonzero;"/><path d="M954.406,114.27c11.776,-0 17.321,-8.016 18.445,-11.92l-10.492,0c-0.75,1.877 -3.826,4.054 -8.854,4.054c-7.728,0 -11.48,-5.18 -11.48,-9.309l31.575,0.075c0.075,-0.674 0.075,-2.471 0.075,-3.22c0.075,-10.353 -8.018,-19.496 -21.07,-19.496c-12.678,0 -21.595,8.467 -21.595,19.646c-0,11.178 8.168,20.17 23.396,20.17Zm-12.381,-23.316c0,-4.73 4.427,-9.234 10.805,-9.234c6.303,-0 10.13,4.054 10.13,9.234l-20.935,0Z" style="fill:#fbfbfa;fill-rule:nonzero;"/><path d="M992.802,77.526c-2.401,1.873 -3.452,5.919 -4.576,8.769l-1.573,-0.675c1.124,-2.843 2.622,-6.442 2.622,-9.441l0,-0.6l-9.14,0l-0,37.491l9.14,-0l0,-19.12c0,-7.205 5.103,-10.43 11.106,-10.43c5.477,-0 8.104,3.225 8.104,10.425l-0,19.125l9.215,-0l0,-25.725c0,-8.545 -5.919,-12.891 -13.567,-12.891c-4.878,0 -8.179,0.6 -11.331,3.072Z" style="fill:#fbfbfa;fill-rule:nonzero;"/><path d="M1024.16,94.1c-0,12.229 8.241,20.095 20.615,20.17c12,-0.075 18.375,-7.417 19.575,-14.768l-9.825,-0c-0.225,0.825 -2.925,6.077 -10.05,6.077c-6.9,-0.075 -11.25,-4.877 -11.25,-11.554c0.075,-6.753 4.2,-10.955 10.95,-10.955c7.275,-0 9.9,5.252 10.125,6.003l9.825,-0c-0.75,-6.977 -7.35,-14.619 -19.725,-14.619c-12.149,0 -20.24,7.417 -20.24,19.646Z" style="fill:#fbfbfa;fill-rule:nonzero;"/><path d="M1092.03,114.27c11.776,-0 17.321,-8.016 18.445,-11.92l-10.492,0c-0.75,1.877 -3.826,4.054 -8.854,4.054c-7.728,0 -11.48,-5.18 -11.48,-9.309l31.575,0.075c0.075,-0.674 0.075,-2.471 0.075,-3.22c0.075,-10.353 -8.018,-19.496 -21.07,-19.496c-12.678,0 -21.595,8.467 -21.595,19.646c-0,11.178 8.168,20.17 23.396,20.17Zm-12.381,-23.316c0,-4.73 4.427,-9.234 10.805,-9.234c6.303,-0 10.13,4.054 10.13,9.234l-20.935,0Z" style="fill:#fbfbfa;fill-rule:nonzero;"/></g><defs><linearGradient id="_Linear2" x1="0" y1="0" x2="1" y2="0" gradientUnits="userSpaceOnUse" gradientTransform="matrix(-3.65786e-13,-169.407,169.407,-3.65786e-13,581.562,169.375)"><stop offset="0" style="stop-color:#ff3b30;stop-opacity:1"/><stop offset="1" style="stop-color:#ff3b30;stop-opacity:0"/></linearGradient><linearGradient id="_Linear3" x1="0" y1="0" x2="1" y2="0" gradientUnits="userSpaceOnUse" gradientTransform="matrix(1.03712e-14,169.375,-169.375,1.03712e-14,598.716,7.10543e-15)"><stop offset="0" style="stop-color:#ff9500;stop-opacity:1"/><stop offset="1" style="stop-color:#ff9500;stop-opacity:0"/></linearGradient><linearGradient id="_Linear5" x1="0" y1="0" x2="1" y2="0" gradientUnits="userSpaceOnUse" gradientTransform="matrix(7.27134e-15,-59.3375,118.75,3.63338e-15,85.1671,144.025)"><stop offset="0" style="stop-color:#cdcdcd;stop-opacity:1"/><stop offset="1" style="stop-color:#cdcdcd;stop-opacity:0"/></linearGradient></defs></svg>