<?xml version="1.0" encoding="UTF-8" standalone="no"?><!DOCTYPE svg PUBLIC "-//W3C//DTD SVG 1.1//EN" "http://www.w3.org/Graphics/SVG/1.1/DTD/svg11.dtd"><svg width="100%" height="100%" viewBox="0 0 1164 170" version="1.1" xmlns="http://www.w3.org/2000/svg" xmlns:xlink="http://www.w3.org/1999/xlink" xml:space="preserve" xmlns:serif="http://www.serif.com/" style="fill-rule:evenodd;clip-rule:evenodd;stroke-linejoin:round;stroke-miterlimit:2;"><rect id="Artboard2" x="0" y="0" width="1163.12" height="169.375" style="fill:none;"/><path d="M1149.04,84.688c-0,38.956 -31.628,70.584 -70.585,70.584l-993.777,-0c-38.957,-0 -70.585,-31.628 -70.585,-70.584c0,-38.957 31.628,-70.585 70.585,-70.585l993.777,0c38.957,0 70.585,31.628 70.585,70.585Z" style="fill:#ed5829;"/><clipPath id="_clip1"><path d="M1149.04,84.688c-0,38.956 -31.628,70.584 -70.585,70.584l-993.777,-0c-38.957,-0 -70.585,-31.628 -70.585,-70.584c0,-38.957 31.628,-70.585 70.585,-70.585l993.777,0c38.957,0 70.585,31.628 70.585,70.585Z"/></clipPath><g clip-path="url(#_clip1)"><rect x="0" y="-0.032" width="1163.12" height="169.407" style="fill:url(#_Linear2);"/><rect x="0" y="-0.032" width="1163.12" height="169.407" style="fill:url(#_Linear3);"/></g><circle cx="85.167" cy="84.65" r="59.375" style="fill:#fbfbfa;"/><clipPath id="_clip4"><circle cx="85.167" cy="84.65" r="59.375"/></clipPath><g clip-path="url(#_clip4)"><rect x="25.792" y="84.687" width="118.75" height="59.338" style="fill:url(#_Linear5);"/></g><g><path d="M98.432,46.132c-0.352,0 -0.711,-0.09 -1.041,-0.281l-11.027,-6.382l-11.065,6.384c-0.997,0.574 -2.267,0.233 -2.842,-0.764c-0.574,-0.996 -0.231,-2.271 0.765,-2.845l12.107,-6.984c0.643,-0.373 1.434,-0.373 2.08,0.002l12.066,6.984c0.997,0.576 1.336,1.849 0.761,2.845c-0.387,0.667 -1.085,1.041 -1.804,1.041" style="fill-rule:nonzero;"/><path d="M86.367,101.019c-1.149,-0 -2.081,-0.932 -2.081,-2.082l0,-13.969c0,-1.15 0.932,-2.082 2.081,-2.082c1.148,0 2.08,0.932 2.08,2.082l0,13.969c0,1.15 -0.932,2.082 -2.08,2.082" style="fill-rule:nonzero;"/><path d="M44.887,77.043c-1.147,0 -2.079,-0.932 -2.079,-2.082l0,-13.963c0,-1.15 0.932,-2.082 2.079,-2.082c1.148,0 2.08,0.932 2.08,2.082l0,13.963c0,1.15 -0.932,2.082 -2.08,2.082" style="fill-rule:nonzero;"/><path d="M127.794,77.043c-1.148,0 -2.08,-0.932 -2.08,-2.082l-0.002,-13.963c-0,-1.148 0.932,-2.082 2.08,-2.082c1.147,0 2.079,0.932 2.079,2.082l0.002,13.963c-0,1.15 -0.932,2.082 -2.079,2.082" style="fill-rule:nonzero;"/><path d="M127.796,111.022c-1.148,-0 -2.08,-0.93 -2.08,-2.083l-0.011,-13.962c-0.002,-1.149 0.93,-2.083 2.078,-2.083l0.002,0c1.149,0 2.08,0.93 2.08,2.081l0.01,13.963c0.003,1.15 -0.93,2.084 -2.077,2.084l-0.002,-0Z" style="fill-rule:nonzero;"/><path d="M44.887,111.022c-1.147,-0 -2.079,-0.932 -2.079,-2.083l0,-13.962c0,-1.151 0.932,-2.083 2.079,-2.083c1.148,0 2.08,0.932 2.08,2.083l0,13.962c0,1.151 -0.932,2.083 -2.08,2.083" style="fill-rule:nonzero;"/><path d="M86.367,54.369c-1.149,0 -2.081,-0.932 -2.081,-2.082l0,-15.224c0,-1.151 0.932,-2.083 2.081,-2.083c1.148,0 2.08,0.932 2.08,2.083l0,15.224c0,1.15 -0.932,2.082 -2.08,2.082" style="fill-rule:nonzero;"/><path d="M86.367,135.019c-1.149,-0 -2.081,-0.932 -2.081,-2.082l0,-13.963c0,-1.15 0.932,-2.082 2.081,-2.082c1.148,-0 2.08,0.932 2.08,2.082l0,13.963c0,1.15 -0.932,2.082 -2.08,2.082" style="fill-rule:nonzero;"/><path d="M86.367,135.019c-0.358,-0 -0.719,-0.093 -1.041,-0.278l-12.149,-7.029c-0.995,-0.576 -1.336,-1.85 -0.758,-2.845c0.572,-0.997 1.845,-1.336 2.842,-0.761l11.106,6.426l10.956,-6.349c0.993,-0.576 2.267,-0.235 2.843,0.76c0.577,0.995 0.236,2.269 -0.759,2.845l-11.999,6.951c-0.319,0.187 -0.682,0.28 -1.041,0.28" style="fill-rule:nonzero;"/><path d="M86.367,87.051c-0.358,-0 -0.717,-0.093 -1.041,-0.278l-12.107,-6.988c-0.995,-0.576 -1.336,-1.849 -0.761,-2.846c0.578,-0.998 1.845,-1.333 2.842,-0.765l11.065,6.39l11.026,-6.386c1.001,-0.576 2.268,-0.237 2.844,0.76c0.576,0.994 0.235,2.269 -0.76,2.845l-12.067,6.988c-0.319,0.187 -0.682,0.28 -1.041,0.28" style="fill-rule:nonzero;"/><path d="M115.713,70.067c-0.719,0 -1.419,-0.372 -1.803,-1.041c-0.576,-0.996 -0.237,-2.269 0.762,-2.845l12.08,-6.986c0.993,-0.573 2.268,-0.234 2.84,0.761c0.576,0.999 0.235,2.271 -0.761,2.847l-12.079,6.985c-0.328,0.189 -0.685,0.279 -1.039,0.279" style="fill-rule:nonzero;"/><path d="M127.789,63.082c-0.352,0 -0.712,-0.091 -1.038,-0.279l-12.099,-6.992c-0.995,-0.574 -1.335,-1.847 -0.763,-2.844c0.578,-0.996 1.853,-1.337 2.844,-0.763l12.097,6.992c0.997,0.574 1.337,1.847 0.765,2.845c-0.385,0.667 -1.086,1.041 -1.806,1.041" style="fill-rule:nonzero;"/><path d="M56.974,70.067c-0.354,0 -0.712,-0.09 -1.04,-0.279l-12.088,-6.985c-0.992,-0.576 -1.335,-1.848 -0.761,-2.845c0.574,-0.997 1.853,-1.336 2.842,-0.763l12.088,6.986c0.997,0.574 1.337,1.849 0.763,2.845c-0.385,0.667 -1.085,1.041 -1.804,1.041" style="fill-rule:nonzero;"/><path d="M44.889,63.082c-0.719,0 -1.42,-0.374 -1.805,-1.043c-0.572,-0.996 -0.231,-2.269 0.765,-2.845l12.077,-6.968c0.991,-0.574 2.266,-0.233 2.84,0.765c0.574,0.995 0.232,2.27 -0.763,2.844l-12.077,6.969c-0.328,0.187 -0.685,0.278 -1.037,0.278" style="fill-rule:nonzero;"/><path d="M115.689,118.008c-0.72,-0 -1.421,-0.375 -1.806,-1.043c-0.572,-0.997 -0.232,-2.272 0.765,-2.844l12.11,-6.986c0.993,-0.576 2.264,-0.233 2.84,0.763c0.573,0.999 0.232,2.271 -0.765,2.846l-12.108,6.986c-0.326,0.187 -0.686,0.278 -1.036,0.278" style="fill-rule:nonzero;"/><path d="M127.794,111.023c-0.354,-0 -0.713,-0.091 -1.039,-0.28l-12.088,-6.986c-0.995,-0.574 -1.338,-1.849 -0.761,-2.846c0.574,-0.996 1.852,-1.334 2.841,-0.761l12.088,6.986c0.995,0.574 1.336,1.849 0.764,2.845c-0.386,0.667 -1.086,1.042 -1.805,1.042" style="fill-rule:nonzero;"/><path d="M56.974,118.016c-0.354,-0 -0.712,-0.091 -1.041,-0.28l-12.088,-6.993c-0.993,-0.576 -1.334,-1.849 -0.758,-2.846c0.572,-0.995 1.847,-1.334 2.842,-0.761l12.088,6.993c0.996,0.576 1.335,1.849 0.759,2.846c-0.383,0.667 -1.083,1.041 -1.802,1.041" style="fill-rule:nonzero;"/><path d="M44.889,111.023c-0.719,-0 -1.418,-0.373 -1.803,-1.042c-0.574,-0.994 -0.235,-2.269 0.76,-2.843l12.065,-6.988c1.001,-0.576 2.268,-0.235 2.844,0.761c0.576,0.995 0.235,2.27 -0.76,2.846l-12.065,6.986c-0.328,0.189 -0.688,0.28 -1.041,0.28" style="fill-rule:nonzero;"/><g opacity="0.2"><path d="M44.889,62.187c-0.412,-0 -0.81,-0.213 -1.03,-0.595c-0.327,-0.569 -0.132,-1.295 0.435,-1.621l41.479,-23.937c0.576,-0.33 1.295,-0.131 1.623,0.437c0.327,0.567 0.131,1.293 -0.436,1.621l-41.48,23.935c-0.188,0.108 -0.391,0.16 -0.591,0.16" style="fill-rule:nonzero;"/></g><g opacity="0.2"><path d="M44.889,110.127c-0.412,0 -0.81,-0.211 -1.029,-0.593c-0.328,-0.568 -0.135,-1.295 0.434,-1.623l82.906,-47.94c0.566,-0.332 1.293,-0.135 1.619,0.435c0.328,0.567 0.135,1.293 -0.436,1.621l-82.903,47.941c-0.186,0.107 -0.391,0.159 -0.591,0.159" style="fill-rule:nonzero;"/></g><g opacity="0.2"><path d="M127.789,62.187c-0.199,-0 -0.404,-0.052 -0.589,-0.16l-41.427,-23.935c-0.565,-0.328 -0.762,-1.054 -0.432,-1.623c0.324,-0.566 1.047,-0.765 1.619,-0.435l41.423,23.937c0.569,0.328 0.764,1.054 0.436,1.623c-0.221,0.38 -0.619,0.593 -1.03,0.593" style="fill-rule:nonzero;"/></g><g opacity="0.2"><path d="M127.794,110.127c-0.202,0 -0.405,-0.052 -0.591,-0.159l-82.909,-47.941c-0.569,-0.328 -0.762,-1.054 -0.434,-1.621c0.326,-0.569 1.053,-0.763 1.62,-0.435l82.909,47.94c0.569,0.328 0.761,1.055 0.433,1.623c-0.218,0.38 -0.616,0.593 -1.028,0.593" style="fill-rule:nonzero;"/></g><g opacity="0.2"><path d="M86.365,134.124c-0.2,0 -0.406,-0.052 -0.591,-0.159l-41.481,-23.998c-0.568,-0.328 -0.761,-1.054 -0.431,-1.623c0.324,-0.567 1.05,-0.761 1.619,-0.433l41.479,23.998c0.568,0.328 0.763,1.056 0.435,1.623c-0.221,0.381 -0.619,0.592 -1.03,0.592" style="fill-rule:nonzero;"/></g><g opacity="0.2"><path d="M86.368,134.124c-0.411,0 -0.807,-0.211 -1.028,-0.592c-0.328,-0.567 -0.135,-1.295 0.432,-1.623l41.429,-23.996c0.57,-0.334 1.291,-0.136 1.621,0.431c0.329,0.569 0.135,1.295 -0.43,1.623l-41.431,23.998c-0.187,0.107 -0.391,0.159 -0.593,0.159" style="fill-rule:nonzero;"/></g><g opacity="0.2"><path d="M44.887,110.127c-0.656,0 -1.186,-0.532 -1.186,-1.187l0,-47.941c0,-0.656 0.53,-1.187 1.186,-1.187c0.655,-0 1.187,0.531 1.187,1.187l0,47.941c0,0.655 -0.532,1.187 -1.187,1.187" style="fill-rule:nonzero;"/></g><g opacity="0.2"><path d="M127.796,110.127c-0.656,0 -1.187,-0.532 -1.187,-1.187l-0.004,-47.941c-0,-0.656 0.532,-1.187 1.187,-1.187c0.656,-0 1.186,0.531 1.186,1.187l0.004,47.941c-0,0.655 -0.53,1.187 -1.186,1.187" style="fill-rule:nonzero;"/></g><g opacity="0.2"><path d="M86.367,133.988c-0.656,-0 -1.188,-0.532 -1.188,-1.188l0,-95.736c0,-0.656 0.532,-1.188 1.188,-1.188c0.656,0 1.187,0.532 1.187,1.188l0,95.736c0,0.656 -0.531,1.188 -1.187,1.188" style="fill-rule:nonzero;"/></g></g><g transform="matrix(75,0,0,75,1113.41,113.075)"></g><text x="150.855px" y="113.075px" style="font-family:'Trap-Bold', 'Trap';font-weight:700;font-size:75px;fill:#fbfbfa;">Unl<tspan x="278.955px 327.555px " y="113.075px 113.075px ">oc</tspan>k the A<tspan x="627.48px " y="113.075px ">R</tspan> Ex<tspan x="781.005px " y="113.075px ">p</tspan>erience</text><defs><linearGradient id="_Linear2" x1="0" y1="0" x2="1" y2="0" gradientUnits="userSpaceOnUse" gradientTransform="matrix(-3.65786e-13,-169.407,169.407,-3.65786e-13,581.562,169.375)"><stop offset="0" style="stop-color:#ff3b30;stop-opacity:1"/><stop offset="1" style="stop-color:#ff3b30;stop-opacity:0"/></linearGradient><linearGradient id="_Linear3" x1="0" y1="0" x2="1" y2="0" gradientUnits="userSpaceOnUse" gradientTransform="matrix(1.03712e-14,169.375,-169.375,1.03712e-14,598.716,7.10543e-15)"><stop offset="0" style="stop-color:#ff9500;stop-opacity:1"/><stop offset="1" style="stop-color:#ff9500;stop-opacity:0"/></linearGradient><linearGradient id="_Linear5" x1="0" y1="0" x2="1" y2="0" gradientUnits="userSpaceOnUse" gradientTransform="matrix(7.27134e-15,-59.3375,118.75,3.63338e-15,85.1671,144.025)"><stop offset="0" style="stop-color:#cdcdcd;stop-opacity:1"/><stop offset="1" style="stop-color:#cdcdcd;stop-opacity:0"/></linearGradient></defs></svg>