<?xml version="1.0" encoding="UTF-8" standalone="no"?><!DOCTYPE svg PUBLIC "-//W3C//DTD SVG 1.1//EN" "http://www.w3.org/Graphics/SVG/1.1/DTD/svg11.dtd"><svg width="100%" height="100%" viewBox="0 0 157 157" version="1.1" xmlns="http://www.w3.org/2000/svg" xmlns:xlink="http://www.w3.org/1999/xlink" xml:space="preserve" xmlns:serif="http://www.serif.com/" style="fill-rule:evenodd;clip-rule:evenodd;stroke-linejoin:round;stroke-miterlimit:2;"><path d="M156.25,78.125c-0,43.118 -35.007,78.125 -78.125,78.125c-43.118,0 -78.125,-35.007 -78.125,-78.125c-0,-43.118 35.007,-78.125 78.125,-78.125c43.118,-0 78.125,35.007 78.125,78.125Z" style="fill:#ed5829;"/><clipPath id="_clip1"><path d="M156.25,78.125c-0,43.118 -35.007,78.125 -78.125,78.125c-43.118,0 -78.125,-35.007 -78.125,-78.125c-0,-43.118 35.007,-78.125 78.125,-78.125c43.118,-0 78.125,35.007 78.125,78.125Z"/></clipPath><g clip-path="url(#_clip1)"><rect x="-1.94" y="-15.645" width="160.129" height="187.505" style="fill:url(#_Linear2);"/><rect x="-1.94" y="-15.645" width="160.129" height="187.505" style="fill:url(#_Linear3);"/></g><circle cx="78.125" cy="78.107" r="62.5" style="fill:#fbfbfa;"/><g><path d="M90.216,39.258c-0.352,-0 -0.712,-0.091 -1.042,-0.282l-11.026,-6.382l-11.065,6.384c-0.997,0.574 -2.268,0.233 -2.842,-0.763c-0.574,-0.997 -0.232,-2.271 0.765,-2.846l12.106,-6.984c0.643,-0.372 1.434,-0.372 2.081,0.002l12.066,6.984c0.996,0.576 1.335,1.849 0.761,2.846c-0.387,0.667 -1.086,1.041 -1.804,1.041" style="fill-rule:nonzero;"/><path d="M78.15,94.144c-1.148,0 -2.08,-0.932 -2.08,-2.082l-0,-13.968c-0,-1.151 0.932,-2.083 2.08,-2.083c1.149,0 2.081,0.932 2.081,2.083l-0,13.968c-0,1.15 -0.932,2.082 -2.081,2.082" style="fill-rule:nonzero;"/><path d="M36.67,70.169c-1.146,-0 -2.078,-0.932 -2.078,-2.083l-0,-13.962c-0,-1.151 0.932,-2.083 2.078,-2.083c1.149,0 2.081,0.932 2.081,2.083l-0,13.962c-0,1.151 -0.932,2.083 -2.081,2.083" style="fill-rule:nonzero;"/><path d="M119.578,70.169c-1.149,-0 -2.081,-0.932 -2.081,-2.083l-0.001,-13.962c-0,-1.149 0.931,-2.083 2.08,-2.083c1.147,0 2.079,0.932 2.079,2.083l0.001,13.962c0,1.151 -0.931,2.083 -2.078,2.083" style="fill-rule:nonzero;"/><path d="M119.58,104.147c-1.149,-0 -2.081,-0.93 -2.081,-2.082l-0.011,-13.963c-0.002,-1.149 0.93,-2.082 2.079,-2.082l0.002,-0c1.148,-0 2.08,0.93 2.08,2.08l0.009,13.963c0.004,1.15 -0.93,2.084 -2.076,2.084l-0.002,-0Z" style="fill-rule:nonzero;"/><path d="M36.67,104.147c-1.146,-0 -2.078,-0.932 -2.078,-2.082l-0,-13.963c-0,-1.15 0.932,-2.082 2.078,-2.082c1.149,-0 2.081,0.932 2.081,2.082l-0,13.963c-0,1.15 -0.932,2.082 -2.081,2.082" style="fill-rule:nonzero;"/><path d="M78.15,47.495c-1.148,-0 -2.08,-0.932 -2.08,-2.083l-0,-15.224c-0,-1.15 0.932,-2.082 2.08,-2.082c1.149,-0 2.081,0.932 2.081,2.082l-0,15.224c-0,1.151 -0.932,2.083 -2.081,2.083" style="fill-rule:nonzero;"/><path d="M78.15,128.144c-1.148,0 -2.08,-0.932 -2.08,-2.082l-0,-13.963c-0,-1.15 0.932,-2.082 2.08,-2.082c1.149,-0 2.081,0.932 2.081,2.082l-0,13.963c-0,1.15 -0.932,2.082 -2.081,2.082" style="fill-rule:nonzero;"/><path d="M78.15,128.144c-0.357,0 -0.718,-0.092 -1.041,-0.278l-12.149,-7.028c-0.995,-0.576 -1.336,-1.851 -0.758,-2.846c0.573,-0.996 1.846,-1.335 2.842,-0.761l11.106,6.426l10.956,-6.348c0.993,-0.576 2.268,-0.236 2.844,0.759c0.576,0.995 0.235,2.27 -0.759,2.846l-12,6.951c-0.318,0.187 -0.681,0.279 -1.041,0.279" style="fill-rule:nonzero;"/><path d="M78.15,80.176c-0.357,-0 -0.717,-0.093 -1.041,-0.278l-12.106,-6.988c-0.995,-0.576 -1.336,-1.849 -0.762,-2.845c0.578,-0.999 1.845,-1.334 2.842,-0.765l11.066,6.389l11.026,-6.386c1,-0.576 2.267,-0.237 2.844,0.76c0.576,0.995 0.235,2.269 -0.76,2.845l-12.068,6.988c-0.318,0.187 -0.681,0.28 -1.041,0.28" style="fill-rule:nonzero;"/><path d="M107.496,63.193c-0.718,-0 -1.419,-0.373 -1.802,-1.042c-0.576,-0.996 -0.237,-2.269 0.761,-2.845l12.081,-6.986c0.993,-0.572 2.267,-0.233 2.84,0.761c0.576,0.999 0.235,2.272 -0.762,2.848l-12.078,6.984c-0.328,0.189 -0.686,0.28 -1.04,0.28" style="fill-rule:nonzero;"/><path d="M119.572,56.208c-0.352,-0 -0.711,-0.091 -1.037,-0.28l-12.099,-6.992c-0.995,-0.574 -1.336,-1.847 -0.763,-2.843c0.578,-0.997 1.852,-1.338 2.843,-0.764l12.097,6.992c0.997,0.574 1.338,1.847 0.766,2.845c-0.386,0.667 -1.086,1.042 -1.807,1.042" style="fill-rule:nonzero;"/><path d="M48.757,63.193c-0.354,-0 -0.711,-0.091 -1.039,-0.28l-12.088,-6.984c-0.993,-0.576 -1.336,-1.849 -0.761,-2.846c0.574,-0.996 1.852,-1.335 2.841,-0.763l12.088,6.986c0.997,0.574 1.338,1.849 0.764,2.845c-0.386,0.667 -1.086,1.042 -1.805,1.042" style="fill-rule:nonzero;"/><path d="M36.672,56.208c-0.719,-0 -1.419,-0.375 -1.804,-1.043c-0.573,-0.997 -0.232,-2.27 0.765,-2.846l12.077,-6.967c0.991,-0.575 2.265,-0.234 2.84,0.765c0.574,0.994 0.231,2.269 -0.764,2.843l-12.076,6.97c-0.328,0.187 -0.686,0.278 -1.038,0.278" style="fill-rule:nonzero;"/><path d="M107.473,111.133c-0.721,-0 -1.421,-0.374 -1.806,-1.043c-0.573,-0.997 -0.232,-2.271 0.765,-2.844l12.11,-6.986c0.993,-0.576 2.264,-0.233 2.84,0.764c0.572,0.998 0.231,2.271 -0.765,2.845l-12.109,6.986c-0.326,0.187 -0.685,0.278 -1.035,0.278" style="fill-rule:nonzero;"/><path d="M119.578,104.148c-0.354,-0 -0.713,-0.091 -1.039,-0.28l-12.088,-6.986c-0.995,-0.574 -1.338,-1.849 -0.762,-2.845c0.574,-0.997 1.853,-1.334 2.842,-0.762l12.088,6.986c0.995,0.575 1.336,1.849 0.763,2.846c-0.385,0.667 -1.085,1.041 -1.804,1.041" style="fill-rule:nonzero;"/><path d="M48.757,111.141c-0.354,0 -0.711,-0.091 -1.041,-0.28l-12.088,-6.993c-0.993,-0.576 -1.334,-1.849 -0.757,-2.846c0.572,-0.994 1.847,-1.333 2.841,-0.761l12.088,6.993c0.997,0.577 1.336,1.849 0.76,2.846c-0.384,0.667 -1.084,1.041 -1.803,1.041" style="fill-rule:nonzero;"/><path d="M36.672,104.148c-0.719,-0 -1.417,-0.372 -1.802,-1.041c-0.575,-0.995 -0.236,-2.27 0.759,-2.844l12.066,-6.988c1,-0.576 2.267,-0.235 2.844,0.762c0.576,0.994 0.235,2.269 -0.76,2.845l-12.066,6.986c-0.328,0.189 -0.687,0.28 -1.041,0.28" style="fill-rule:nonzero;"/><g opacity="0.2"><path d="M36.672,55.312c-0.411,0 -0.809,-0.213 -1.03,-0.595c-0.326,-0.568 -0.131,-1.295 0.435,-1.621l41.479,-23.937c0.576,-0.329 1.295,-0.131 1.623,0.438c0.328,0.567 0.132,1.293 -0.435,1.621l-41.481,23.935c-0.187,0.107 -0.391,0.159 -0.591,0.159" style="fill-rule:nonzero;"/></g><g opacity="0.2"><path d="M36.672,103.252c-0.411,0 -0.809,-0.211 -1.028,-0.592c-0.328,-0.569 -0.135,-1.295 0.433,-1.623l82.906,-47.941c0.567,-0.331 1.293,-0.135 1.619,0.436c0.328,0.566 0.136,1.293 -0.435,1.621l-82.904,47.94c-0.185,0.107 -0.391,0.159 -0.591,0.159" style="fill-rule:nonzero;"/></g><g opacity="0.2"><path d="M119.572,55.312c-0.198,0 -0.404,-0.052 -0.589,-0.159l-41.427,-23.935c-0.565,-0.328 -0.761,-1.054 -0.431,-1.623c0.324,-0.567 1.046,-0.765 1.619,-0.436l41.423,23.937c0.569,0.328 0.763,1.054 0.435,1.623c-0.22,0.38 -0.618,0.593 -1.03,0.593" style="fill-rule:nonzero;"/></g><g opacity="0.2"><path d="M119.578,103.252c-0.202,0 -0.406,-0.052 -0.591,-0.159l-82.91,-47.94c-0.568,-0.328 -0.761,-1.055 -0.433,-1.621c0.326,-0.569 1.052,-0.764 1.619,-0.436l82.91,47.941c0.568,0.328 0.761,1.054 0.433,1.623c-0.219,0.379 -0.617,0.592 -1.028,0.592" style="fill-rule:nonzero;"/></g><g opacity="0.2"><path d="M78.149,127.25c-0.201,-0 -0.406,-0.052 -0.591,-0.16l-41.481,-23.998c-0.569,-0.328 -0.762,-1.054 -0.432,-1.623c0.324,-0.566 1.051,-0.761 1.619,-0.433l41.479,23.998c0.569,0.328 0.763,1.056 0.436,1.623c-0.221,0.381 -0.619,0.593 -1.03,0.593" style="fill-rule:nonzero;"/></g><g opacity="0.2"><path d="M78.152,127.25c-0.411,-0 -0.808,-0.212 -1.028,-0.593c-0.328,-0.567 -0.135,-1.295 0.432,-1.623l41.428,-23.996c0.571,-0.334 1.292,-0.135 1.621,0.431c0.33,0.569 0.136,1.295 -0.43,1.623l-41.43,23.998c-0.187,0.108 -0.391,0.16 -0.593,0.16" style="fill-rule:nonzero;"/></g><g opacity="0.2"><path d="M36.67,103.252c-0.656,0 -1.185,-0.531 -1.185,-1.187l-0,-47.941c-0,-0.655 0.529,-1.187 1.185,-1.187c0.656,-0 1.188,0.532 1.188,1.187l-0,47.941c-0,0.656 -0.532,1.187 -1.188,1.187" style="fill-rule:nonzero;"/></g><g opacity="0.2"><path d="M119.58,103.252c-0.656,0 -1.188,-0.531 -1.188,-1.187l-0.004,-47.941c0,-0.655 0.532,-1.187 1.188,-1.187c0.656,-0 1.186,0.532 1.186,1.187l0.003,47.941c0,0.656 -0.53,1.187 -1.185,1.187" style="fill-rule:nonzero;"/></g><g opacity="0.2"><path d="M78.15,127.113c-0.655,0 -1.187,-0.532 -1.187,-1.187l-0,-95.737c-0,-0.656 0.532,-1.187 1.187,-1.187c0.656,-0 1.188,0.531 1.188,1.187l-0,95.737c-0,0.655 -0.532,1.187 -1.188,1.187" style="fill-rule:nonzero;"/></g></g><defs><linearGradient id="_Linear2" x1="0" y1="0" x2="1" y2="0" gradientUnits="userSpaceOnUse" gradientTransform="matrix(-5.03583e-14,-187.505,23.3225,-4.04864e-13,78.125,171.86)"><stop offset="0" style="stop-color:#ff3b30;stop-opacity:1"/><stop offset="1" style="stop-color:#ff3b30;stop-opacity:0"/></linearGradient><linearGradient id="_Linear3" x1="0" y1="0" x2="1" y2="0" gradientUnits="userSpaceOnUse" gradientTransform="matrix(1.42782e-15,187.47,-23.3181,1.14792e-14,80.4865,-15.61)"><stop offset="0" style="stop-color:#ff9500;stop-opacity:1"/><stop offset="1" style="stop-color:#ff9500;stop-opacity:0"/></linearGradient></defs></svg>